<svg width="92" height="92" viewBox="0 0 92 92" fill="none" xmlns="http://www.w3.org/2000/svg">
<path d="M77.4513 31.4513C76.4673 31.4513 75.5063 31.5507 74.5763 31.738C71.5233 25.4863 66.4933 20.375 60.3077 17.2087C60.4718 16.3315 60.5548 15.4411 60.5557 14.5487C60.5557 6.52633 54.029 0 46.007 0C37.985 0 31.4583 6.52633 31.4583 14.5487C31.4583 15.3743 31.5313 16.1833 31.664 16.972C25.2827 20.1142 20.1187 25.2771 16.975 31.6577C16.1733 31.5212 15.3616 31.4522 14.5483 31.4513C6.52667 31.4513 0 37.978 0 46C0 54.022 6.52667 60.5487 14.5487 60.5487C15.4563 60.5487 16.3433 60.461 17.2053 60.3013C20.3723 66.492 25.4877 71.5263 31.7447 74.58C31.5545 75.5254 31.4587 76.4873 31.4587 77.4517C31.4587 85.474 37.9853 92.0003 46.0073 92.0003C54.0293 92.0003 60.556 85.474 60.556 77.4517C60.556 76.3863 60.4377 75.3487 60.2193 74.3477C66.3074 71.2508 71.2555 66.3017 74.351 60.213C75.351 60.431 76.3877 60.549 77.4517 60.549C85.4733 60.5487 92 54.0223 92 46C92 37.9777 85.4733 31.4513 77.4513 31.4513ZM77.4513 58.852C70.3647 58.852 64.5993 53.0867 64.5993 46C64.5993 38.9133 70.3647 33.148 77.4513 33.148C84.538 33.148 90.3033 38.9133 90.3033 46C90.3033 53.0867 84.538 58.852 77.4513 58.852ZM33.1553 14.5487C33.1553 7.462 38.9207 1.69667 46.0073 1.69667C53.094 1.69667 58.8593 7.462 58.8593 14.5487C58.8593 21.6353 53.094 27.401 46.0073 27.401C38.9207 27.401 33.1553 21.6353 33.1553 14.5487ZM1.69633 46C1.69633 38.9133 7.46167 33.148 14.5483 33.148C21.635 33.148 27.4007 38.9133 27.4007 46C27.4007 53.0867 21.6353 58.852 14.5487 58.852C7.462 58.852 1.69633 53.0867 1.69633 46ZM58.8593 77.4513C58.8593 84.538 53.094 90.3033 46.0073 90.3033C38.9207 90.3033 33.1553 84.538 33.1553 77.4513C33.1553 70.3647 38.9207 64.5993 46.0073 64.5993C53.094 64.5993 58.8593 70.3647 58.8593 77.4513ZM59.749 72.6827C57.8587 67.2513 52.8377 63.2753 46.8557 62.9297V52.7957L50.668 56.5253C50.7476 56.6033 50.8418 56.6648 50.9452 56.7064C51.0486 56.7479 51.1592 56.7686 51.2706 56.7674C51.382 56.7662 51.4921 56.743 51.5946 56.6992C51.697 56.6553 51.7898 56.5917 51.8677 56.512C51.9456 56.4324 52.0071 56.3382 52.0486 56.2348C52.0901 56.1314 52.1108 56.0208 52.1096 55.9094C52.1084 55.798 52.0852 55.6879 52.0414 55.5855C51.9976 55.483 51.934 55.3902 51.8543 55.3123L47.1833 50.7427C46.9137 50.4806 46.5661 50.3136 46.193 50.267C46.1321 50.2529 46.0698 50.2455 46.0073 50.245C45.996 50.245 45.9857 50.248 45.9743 50.2483C45.7404 50.2459 45.5084 50.2909 45.2922 50.3805C45.0761 50.4701 44.8803 50.6025 44.7167 50.7697L40.147 55.4407C40.03 55.56 39.9509 55.7112 39.9196 55.8753C39.8882 56.0394 39.9061 56.2091 39.9708 56.3631C40.0356 56.5171 40.1444 56.6485 40.2837 56.7409C40.4229 56.8333 40.5863 56.8825 40.7533 56.8823C40.9733 56.8823 41.1937 56.797 41.3597 56.6273L45.1587 52.7437V62.9297C39.0963 63.28 34.0203 67.3593 32.1903 72.903C26.5136 70.051 21.867 65.5005 18.897 59.8847C24.543 58.1123 28.7153 52.9843 29.07 46.8487H39.204L35.4747 50.6607C35.3577 50.78 35.2786 50.9312 35.2472 51.0953C35.2159 51.2594 35.2337 51.4291 35.2985 51.5831C35.3633 51.7371 35.4721 51.8685 35.6113 51.9609C35.7505 52.0533 35.9139 52.1025 36.081 52.1023C36.301 52.1023 36.5213 52.017 36.6873 51.8473L41.257 47.1763C41.5192 46.9071 41.6862 46.5596 41.7327 46.1867C41.746 46.1267 41.7547 46.0647 41.7547 46.0007C41.7547 45.99 41.752 45.98 41.7517 45.9693C41.7517 45.9587 41.7547 45.9483 41.7543 45.9377C41.7525 45.7085 41.7052 45.482 41.6152 45.2713C41.5252 45.0606 41.3943 44.8698 41.23 44.71L36.559 40.1403C36.3968 39.9902 36.1824 39.9093 35.9614 39.9148C35.7405 39.9203 35.5304 40.0118 35.3758 40.1698C35.2213 40.3278 35.1345 40.5399 35.1339 40.7609C35.1333 40.982 35.219 41.1945 35.3727 41.3533L39.256 45.1523H29.0703C28.7113 38.9383 24.4347 33.7603 18.6787 32.0527C21.611 26.2905 26.2955 21.607 32.0583 18.676C33.765 24.4337 38.9437 28.7117 45.159 29.071V39.2067L44.0177 38.0903L41.36 35.3733C41.2621 35.2745 41.1411 35.2015 41.008 35.161C40.8362 35.0298 40.6208 34.9694 40.4059 34.992C40.1909 35.0147 39.9928 35.1187 39.8522 35.2828C39.7115 35.4469 39.639 35.6586 39.6495 35.8745C39.66 36.0903 39.7528 36.294 39.9087 36.4437L42.8213 39.2933L44.7173 41.2313C44.8797 41.3973 45.0737 41.5291 45.2878 41.6189C45.5019 41.7088 45.7318 41.7548 45.964 41.7543C45.9697 41.7543 45.9753 41.7527 45.9813 41.7527C45.9903 41.753 45.9987 41.7553 46.0077 41.7553C46.073 41.7553 46.136 41.7463 46.197 41.7323C46.5686 41.6855 46.9148 41.519 47.1833 41.258L51.8543 36.6883C51.934 36.6104 51.9975 36.5176 52.0413 36.4152C52.0851 36.3127 52.1082 36.2027 52.1095 36.0913C52.1107 35.9799 52.09 35.8693 52.0485 35.7659C52.007 35.6625 51.9456 35.5683 51.8677 35.4887C51.8483 35.4687 51.8257 35.4537 51.8047 35.436C51.7626 35.315 51.6932 35.2053 51.602 35.1153C51.5224 35.0374 51.4281 34.976 51.3248 34.9345C51.2214 34.893 51.1108 34.8723 50.9994 34.8735C50.888 34.8748 50.7779 34.8979 50.6755 34.9417C50.5731 34.9855 50.4802 35.049 50.4023 35.1287L46.8553 38.7543V29.071C52.9897 28.7163 58.117 24.545 59.8903 18.9007C65.5013 21.87 70.0482 26.5131 72.8993 32.185C67.3573 34.0157 63.2797 39.0907 62.9293 45.152H52.7433L56.6267 41.353C56.7063 41.2751 56.7698 41.1823 56.8136 41.0798C56.8574 40.9774 56.8806 40.8673 56.8818 40.7559C56.883 40.6445 56.8623 40.534 56.8208 40.4306C56.7793 40.3272 56.7179 40.233 56.64 40.1533C56.5621 40.0737 56.4693 40.0102 56.3668 39.9664C56.2644 39.9226 56.1543 39.8994 56.0429 39.8982C55.9315 39.897 55.821 39.9177 55.7176 39.9592C55.6142 40.0007 55.52 40.0621 55.4403 40.14L50.769 44.7097C50.6022 44.8732 50.4702 45.0687 50.3808 45.2844C50.2914 45.5002 50.2464 45.7318 50.2487 45.9653C50.248 45.977 50.245 45.988 50.245 46C50.245 46.0647 50.2537 46.1267 50.2673 46.187C50.3141 46.5594 50.4808 46.9064 50.7423 47.1757L55.312 51.8467C55.478 52.0167 55.698 52.1017 55.9183 52.1017C56.0853 52.1017 56.2486 52.0524 56.3877 51.96C56.5268 51.8676 56.6356 51.7362 56.7003 51.5822C56.7651 51.4283 56.7829 51.2586 56.7517 51.0946C56.7204 50.9305 56.6415 50.7794 56.5247 50.66L52.7953 46.848H62.9293C63.2753 52.831 67.253 57.853 72.6853 59.7427C69.7963 65.2762 65.2817 69.7921 59.749 72.6827Z" fill="#0A0E1A"/>
</svg>
