<svg width="90" height="80" viewBox="0 0 90 80" fill="none" xmlns="http://www.w3.org/2000/svg">
<path d="M9.74539 50.1591C11.2849 50.1591 12.7366 49.7747 14.0325 49.1094L21.5007 61.7521C19.1531 63.6088 17.6273 66.5388 17.6273 69.8407C17.6273 75.4425 21.9992 80 27.3727 80C32.4316 80 36.5999 75.9593 37.0707 70.8119H52.9293C53.4001 75.9593 57.5684 80 62.6273 80C68.0008 80 72.3727 75.4425 72.3727 69.8407C72.3727 66.5388 70.8469 63.6088 68.4993 61.7521L75.9675 49.1094C77.2631 49.7747 78.7151 50.1591 80.2546 50.1591C85.6281 50.1591 90 45.6019 90 40.0002C90 34.3985 85.6281 29.8409 80.2546 29.8409C78.7151 29.8409 77.2634 30.2253 75.9675 30.8906L68.4993 18.2479C70.8469 16.3912 72.3727 13.4612 72.3727 10.1593C72.3727 4.55755 68.0008 0 62.6273 0C57.5684 0 53.4001 4.04068 52.9293 9.18813H37.0707C36.5999 4.04103 32.4316 0.000347633 27.3727 0.000347633C21.9992 0.000347633 17.6273 4.55789 17.6273 10.1596C17.6273 13.4615 19.1531 16.3916 21.5007 18.2483L14.0325 30.8906C12.7369 30.2249 11.2849 29.8409 9.74539 29.8409C4.37188 29.8409 0 34.3985 0 40.0002C0 45.6019 4.37188 50.1591 9.74539 50.1591ZM17.6273 40.0002C17.6273 44.5309 14.0916 48.2168 9.74572 48.2168C5.3992 48.2168 1.86346 44.5309 1.86346 40.0002C1.86346 35.4694 5.3992 31.7832 9.74572 31.7832C14.0912 31.7832 17.6273 35.4694 17.6273 40.0002ZM15.6174 48.0885C17.7317 46.4161 19.1778 43.8739 19.4431 40.9713H35.302C35.5676 43.8739 37.0136 46.4161 39.128 48.0885L31.6595 60.7312C30.3639 60.0658 28.9118 59.6815 27.3724 59.6815C25.8329 59.6815 24.3811 60.0658 23.0852 60.7312L15.6174 48.0885ZM27.3727 1.9426C31.7192 1.9426 35.255 5.62884 35.255 10.1596C35.255 14.6904 31.7192 18.3763 27.3727 18.3763C23.0262 18.3763 19.4904 14.6904 19.4904 10.1596C19.4904 5.62884 23.0262 1.9426 27.3727 1.9426ZM37.0707 11.1307H52.9293C53.1949 14.0333 54.6409 16.5756 56.7553 18.2479L49.2871 30.8906C47.9915 30.2249 46.5395 29.8409 45 29.8409C43.4605 29.8409 42.0088 30.2253 40.7129 30.8906L33.2444 18.2479C35.3591 16.5756 36.8054 14.0337 37.0707 11.1307ZM54.7451 10.1596C54.7451 5.62884 58.2808 1.9426 62.6273 1.9426C66.9738 1.9426 70.5096 5.62884 70.5096 10.1596C70.5096 14.6904 66.9738 18.3763 62.6273 18.3763C58.2811 18.3763 54.7451 14.6904 54.7451 10.1596ZM62.6273 78.0577C58.2808 78.0577 54.7451 74.3715 54.7451 69.8407C54.7451 65.31 58.2808 61.6241 62.6273 61.6241C66.9738 61.6241 70.5096 65.31 70.5096 69.8407C70.5096 74.3715 66.9738 78.0577 62.6273 78.0577ZM52.9293 68.8696H37.0707C36.8051 65.967 35.3591 63.4248 33.2447 61.7524L40.7132 49.1097C42.0088 49.7751 43.4609 50.1594 45.0003 50.1594C46.5398 50.1594 47.9915 49.7751 49.2871 49.1097L56.7553 61.7524C54.6409 63.4248 53.1946 65.9667 52.9293 68.8696ZM35.255 69.8407C35.255 74.3715 31.7192 78.0577 27.3727 78.0577C23.0262 78.0577 19.4904 74.3715 19.4904 69.8407C19.4904 65.31 23.0262 61.6241 27.3727 61.6241C31.7192 61.6241 35.255 65.31 35.255 69.8407ZM37.1181 40.0002C37.1181 35.4694 40.6538 31.7832 45.0003 31.7832C49.3462 31.7832 52.8819 35.4694 52.8819 40.0002C52.8819 44.5309 49.3462 48.2168 45.0003 48.2168C40.6538 48.2168 37.1181 44.5309 37.1181 40.0002ZM66.9144 60.7312C65.6189 60.0658 64.1668 59.6815 62.6273 59.6815C61.0878 59.6815 59.6361 60.0658 58.3405 60.7312L50.8723 48.0885C52.9867 46.4161 54.4324 43.8739 54.698 40.9713H70.5569C70.8225 43.8739 72.2683 46.4161 74.3826 48.0885L66.9144 60.7312ZM72.3727 40.0002C72.3727 35.4694 75.9084 31.7832 80.2543 31.7832C84.6008 31.7832 88.1365 35.4694 88.1365 40.0002C88.1365 44.5309 84.6008 48.2168 80.2543 48.2168C75.9088 48.2168 72.3727 44.5309 72.3727 40.0002ZM74.3826 31.9115C72.2683 33.5839 70.8225 36.1261 70.5569 39.029H54.698C54.4324 36.1264 52.9867 33.5842 50.8723 31.9115L58.3405 19.2688C59.6361 19.9342 61.0882 20.3185 62.6273 20.3185C64.1668 20.3185 65.6185 19.9342 66.9144 19.2688L74.3826 31.9115ZM23.0856 19.2691C24.3811 19.9345 25.8332 20.3189 27.3727 20.3189C28.9122 20.3189 30.3639 19.9345 31.6598 19.2691L39.1283 31.9119C37.014 33.5842 35.5676 36.1268 35.3023 39.0294H19.4431C19.1775 36.1268 17.7317 33.5845 15.6174 31.9119L23.0856 19.2691Z" fill="#0A0E1A"/>
</svg>
