<svg width="91" height="86" viewBox="0 0 91 86" fill="none" xmlns="http://www.w3.org/2000/svg">
<path d="M45.7839 61.678C51.947 61.678 56.9612 56.601 56.9612 50.3603C56.9612 44.1197 51.947 39.0427 45.7839 39.0427C39.6208 39.0427 34.6073 44.1197 34.6073 50.3603C34.6073 56.601 39.6208 61.678 45.7839 61.678ZM45.7839 41.0143C50.8735 41.0143 55.014 45.207 55.014 50.3603C55.014 55.5137 50.8735 59.7063 45.7839 59.7063C40.6947 59.7063 36.5545 55.5137 36.5545 50.3603C36.5545 45.207 40.6947 41.0143 45.7839 41.0143Z" fill="#0A0E1A"/>
<path d="M15.91 83.4173C19.6526 83.4173 23.0952 82.0987 25.815 79.9003C31.4125 83.7487 38.1629 86 45.4231 86C52.7186 86 59.4979 83.725 65.1113 79.8427C67.8425 82.076 71.3135 83.4173 75.0896 83.4173C83.8625 83.4173 91 76.19 91 67.3067C91 60.3013 86.5599 54.329 80.381 52.1153C80.4031 51.6 80.4199 51.0833 80.4199 50.5627C80.4199 36.858 72.6925 24.9543 61.4224 19.0613C61.6024 18.0884 61.6935 17.1008 61.6946 16.111C61.6946 7.22767 54.5571 0 45.7843 0C37.0114 0 29.8739 7.22733 29.8739 16.111C29.8739 16.9987 29.9483 17.869 30.0856 18.718C18.456 24.4847 10.4271 36.5907 10.4271 50.5627C10.4271 51.101 10.4438 51.6353 10.4672 52.1677C4.36702 54.4237 4.55441e-08 60.3583 4.55441e-08 67.3067C-0.000658332 76.19 7.13682 83.4173 15.91 83.4173ZM15.91 53.1673C23.6094 53.1673 29.8732 59.5103 29.8732 67.3067C29.8732 75.103 23.6094 81.4457 15.91 81.4457C8.21063 81.4457 1.94616 75.103 1.94616 67.3067C1.94616 59.5103 8.21063 53.1673 15.91 53.1673ZM75.0893 81.4457C67.3899 81.4457 61.1254 75.103 61.1254 67.3067C61.1254 59.5103 67.3899 53.1673 75.0893 53.1673C82.7887 53.1673 89.0525 59.5103 89.0525 67.3067C89.0525 75.103 82.7887 81.4457 75.0893 81.4457ZM31.8204 16.111C31.8204 8.31467 38.0842 1.97167 45.7836 1.97167C53.483 1.97167 59.7468 8.31467 59.7468 16.111C59.7468 23.9073 53.483 30.25 45.7836 30.25C38.0842 30.25 31.8204 23.9073 31.8204 16.111ZM12.3736 50.5627C12.3736 37.5313 19.7721 26.224 30.5349 20.6993C32.4913 27.3537 38.5855 32.2217 45.7839 32.2217C52.8654 32.2217 58.8787 27.5113 60.9355 21.0233C71.3599 26.6593 78.4727 37.7837 78.4727 50.5627C78.4727 50.8973 78.4576 51.228 78.4477 51.5603C77.3443 51.3186 76.2186 51.1964 75.0896 51.196C66.3164 51.196 59.1789 58.4233 59.1789 67.307C59.1789 71.638 60.8789 75.5727 63.6345 78.4707C58.409 81.979 52.1494 84.0287 45.4235 84.0287C38.738 84.0287 32.514 82.002 27.3075 78.5323C30.0977 75.6287 31.821 71.6687 31.821 67.307C31.821 58.4237 24.6836 51.196 15.9107 51.196C14.7294 51.1969 13.5519 51.3311 12.3999 51.596C12.389 51.252 12.3736 50.909 12.3736 50.5627Z" fill="#0A0E1A"/>
</svg>
