<svg width="82" height="82" viewBox="0 0 82 82" fill="none" xmlns="http://www.w3.org/2000/svg">
<path d="M29.7181 5.09221C22.9291 -1.6974 11.8816 -1.6974 5.09224 5.09221C-1.69741 11.8815 -1.69741 22.929 5.09224 29.718C8.4869 33.1126 12.9463 34.81 17.405 34.81C21.4733 34.81 25.5393 33.3923 28.7992 30.5662L35.1737 36.9407L30.5506 36.9913C30.2813 36.9927 30.0236 37.1011 29.8342 37.2925C29.6448 37.484 29.5392 37.7428 29.5407 38.0121C29.5421 38.2814 29.6505 38.5391 29.8419 38.7285C30.0334 38.9179 30.2922 39.0235 30.5615 39.022H30.5724L36.8294 38.9535C37.2289 38.9479 37.6159 38.8136 37.9329 38.5704C37.9931 38.5316 38.0507 38.4871 38.1033 38.4346C38.1113 38.4269 38.1164 38.4173 38.1238 38.4093C38.3027 38.2335 38.4443 38.0234 38.5402 37.7916C38.6361 37.5598 38.6842 37.311 38.6817 37.0601L38.6129 30.8035C38.6099 30.5362 38.5016 30.2808 38.3115 30.0928C38.1214 29.9048 37.8649 29.7993 37.5975 29.7993H37.586C37.4526 29.8008 37.3209 29.8285 37.1983 29.8809C37.0757 29.9333 36.9646 30.0093 36.8713 30.1047C36.7781 30.2 36.7046 30.3128 36.655 30.4365C36.6053 30.5603 36.5806 30.6926 36.5821 30.8259L36.6343 35.53L30.2563 29.152C36.5004 22.3281 36.3226 11.6964 29.7181 5.09221ZM17.9576 16.853C17.7672 16.6627 17.509 16.5557 17.2397 16.5557C16.9705 16.5557 16.7123 16.6627 16.5219 16.853C16.3316 17.0434 16.2246 17.3016 16.2246 17.5709C16.2246 17.8401 16.3316 18.0983 16.5219 18.2887L27.361 29.1277C24.5832 31.4944 21.095 32.7878 17.4053 32.7878C13.2964 32.7878 9.43375 31.1879 6.5282 28.2824C0.530357 22.2845 0.530357 12.5257 6.5282 6.52784C9.52696 3.5291 13.4658 2.02973 17.4053 2.02973C21.3449 2.02973 25.2837 3.5291 28.2825 6.52784C34.0952 12.3405 34.2743 21.6852 28.8209 27.716L17.9576 16.853ZM76.9078 52.2819C70.3039 45.6775 59.6718 45.4997 52.8482 51.7438L46.4701 45.3661L51.1746 45.4177C51.7364 45.4061 52.1947 44.974 52.2008 44.4135C52.2037 44.1442 52.0995 43.8847 51.9112 43.6922C51.7228 43.4997 51.4657 43.3899 51.1963 43.3869L44.9397 43.3184H44.9182C44.4259 43.3184 43.9614 43.5074 43.6088 43.8526C43.6005 43.8607 43.595 43.8703 43.5873 43.8783C43.5803 43.885 43.5716 43.8898 43.5649 43.8965C43.5136 43.9483 43.4679 44.0054 43.4288 44.0669C43.1858 44.3841 43.0517 44.7712 43.0463 45.1707L42.9775 51.4273C42.9745 51.6966 43.0785 51.956 43.2668 52.1485C43.455 52.341 43.7121 52.4509 43.9813 52.4539H43.9928C44.2602 52.454 44.5168 52.3485 44.7069 52.1605C44.897 51.9725 45.0053 51.7171 45.0082 51.4498L45.0592 46.8264L51.4337 53.2009C45.5105 60.0338 45.7901 70.4163 52.2822 76.908C55.6769 80.3027 60.1362 82 64.595 82C69.054 82 73.5134 80.3027 76.9078 76.908C83.6974 70.1184 83.6974 59.0709 76.9078 52.2819ZM64.595 79.9776C60.486 79.9776 56.6234 78.3776 53.7178 75.4721C48.0179 69.7722 47.7392 60.6776 52.8732 54.6401L63.7116 65.4781C63.9098 65.6763 64.1696 65.7756 64.4294 65.7756C64.6891 65.7756 64.9489 65.6763 65.1472 65.4781C65.2415 65.3838 65.3163 65.2719 65.3673 65.1487C65.4183 65.0256 65.4446 64.8936 65.4446 64.7603C65.4446 64.6269 65.4183 64.4949 65.3673 64.3718C65.3163 64.2486 65.2415 64.1367 65.1472 64.0424L54.2838 53.1794C57.2031 50.5398 60.8986 49.2194 64.5947 49.2194C68.5342 49.2194 72.473 50.7188 75.4718 53.7176C81.4697 59.7154 81.4697 69.4743 75.4718 75.4721C72.5666 78.3773 68.7039 79.9776 64.595 79.9776ZM76.9078 5.09221C70.1188 -1.6974 59.0709 -1.6974 52.2819 5.09221C45.7898 11.5839 45.5102 21.9665 51.4334 28.7993L45.0588 35.1738L45.0079 30.5505C45.005 30.2831 44.8967 30.0277 44.7066 29.8397C44.5165 29.6517 44.2599 29.5463 43.9925 29.5463H43.981C43.8477 29.5478 43.7159 29.5755 43.5933 29.6279C43.4707 29.6803 43.3596 29.7563 43.2664 29.8516C43.1731 29.947 43.0996 30.0597 43.05 30.1835C43.0004 30.3072 42.9756 30.4396 42.9771 30.5729L43.046 36.8289C43.0512 37.2283 43.1852 37.6153 43.4281 37.9324C43.4669 37.9929 43.5117 38.0505 43.5646 38.1034C43.5716 38.1104 43.5806 38.1156 43.588 38.1223C43.5956 38.13 43.6008 38.1396 43.6088 38.1473C43.9579 38.4908 44.4284 38.6827 44.9182 38.6816H44.939L51.196 38.613C51.4653 38.6101 51.7225 38.5002 51.9108 38.3077C52.0992 38.1152 52.2034 37.8557 52.2005 37.5864C52.1944 37.0259 51.7428 36.5822 51.1742 36.5822L46.4701 36.6338L52.8479 30.2561C56.1641 33.2907 60.3787 34.81 64.5947 34.81C69.0537 34.81 73.5131 33.1126 76.9074 29.718C83.6974 22.929 83.6974 11.8815 76.9078 5.09221ZM64.595 32.7882C60.7474 32.7882 57.116 31.3849 54.2838 28.8208L65.1472 17.9575C65.2415 17.8632 65.3162 17.7513 65.3673 17.6281C65.4183 17.505 65.4445 17.373 65.4445 17.2397C65.4445 17.1063 65.4183 16.9743 65.3673 16.8512C65.3162 16.728 65.2415 16.6161 65.1472 16.5218C65.0529 16.4276 64.941 16.3528 64.8179 16.3018C64.6947 16.2508 64.5627 16.2245 64.4294 16.2245C64.2961 16.2245 64.1641 16.2508 64.0409 16.3018C63.9177 16.3528 63.8058 16.4276 63.7116 16.5218L52.8732 27.3599C47.7392 21.3227 48.0179 12.2281 53.7178 6.52816C56.7166 3.52942 60.6555 2.03005 64.595 2.03005C68.5345 2.03005 72.4734 3.52942 75.4721 6.52816C81.47 12.526 81.47 22.2849 75.4721 28.2827C72.5666 31.1879 68.7039 32.7882 64.595 32.7882ZM5.09256 76.9077C8.4869 80.3024 12.9463 81.9997 17.4053 81.9997C21.8644 81.9997 26.3238 80.3024 29.7181 76.9077C36.3226 70.3035 36.5004 59.6718 30.2563 52.8479L36.6346 46.4696L36.5824 51.1737C36.5794 51.4429 36.6835 51.7023 36.8718 51.8948C37.06 52.0873 37.317 52.1972 37.5863 52.2002H37.5978C37.8652 52.2003 38.1218 52.0948 38.3119 51.9068C38.502 51.7188 38.6102 51.4634 38.6132 51.1961L38.6821 44.9391C38.6845 44.6883 38.6363 44.4396 38.5405 44.2079C38.4446 43.9761 38.303 43.7661 38.1241 43.5903C38.1167 43.5823 38.1116 43.573 38.1036 43.565C38.0517 43.5138 37.9946 43.4681 37.9332 43.4289C37.6162 43.1857 37.2292 43.0514 36.8297 43.0458L30.573 42.9772C30.4395 42.9751 30.307 42.9995 30.1829 43.0489C30.0589 43.0984 29.9459 43.1719 29.8505 43.2653C29.755 43.3587 29.6791 43.47 29.6269 43.5929C29.5748 43.7159 29.5476 43.8479 29.5468 43.9814C29.5439 44.2507 29.6481 44.5102 29.8364 44.7027C30.0248 44.8952 30.2819 45.005 30.5513 45.008L35.1743 45.0586L28.7998 51.4334C21.9672 45.5099 11.5843 45.7896 5.09256 52.2819C-1.69709 59.0709 -1.69709 70.1184 5.09256 76.9077ZM17.4053 49.2194C20.9534 49.2194 24.499 50.4401 27.36 52.8729L16.5219 63.7112C16.4277 63.8055 16.3529 63.9174 16.3019 64.0406C16.2509 64.1637 16.2246 64.2957 16.2246 64.4291C16.2246 64.5624 16.2509 64.6944 16.3019 64.8175C16.3529 64.9407 16.4277 65.0526 16.5219 65.1469C16.6162 65.2411 16.7281 65.3159 16.8513 65.3669C16.9744 65.4179 17.1064 65.4442 17.2397 65.4442C17.3731 65.4442 17.5051 65.4179 17.6282 65.3669C17.7514 65.3159 17.8633 65.2411 17.9576 65.1469L28.8206 54.2839C34.2743 60.3147 34.0952 69.6594 28.2825 75.4721C25.3769 78.3776 21.5143 79.9776 17.4053 79.9776C13.2964 79.9776 9.43375 78.3776 6.5282 75.4721C0.530357 69.4743 0.530357 59.7154 6.5282 53.7176C9.52696 50.7188 13.4658 49.2194 17.4053 49.2194Z" fill="#0A0E1A"/>
</svg>
